M48
;Layer_Color=9474304
;FILE_FORMAT=4:2
METRIC,LZ
;TYPE=PLATED
T1F00S00C0.80
T2F00S00C0.90
T3F00S00C1.00
T4F00S00C1.05
T5F00S00C1.10
;TYPE=NON_PLATED
T6F00S00C3.00
%
T01
X008077Y005512
X008598Y005557
Y006045
X008077Y00616
X008064Y007637
X00856Y007533
X007827Y00616
Y005512
X007544Y010073
Y010729
X007967Y010719
X008467Y010719
X00848Y00983
X00798Y00983
X009017Y009612
Y008956
X00856Y008189
X008064Y008293
T02
X008039Y00489
X008293
X009106Y005042
Y005296
Y00555
Y005804
Y006058
Y006312
Y006566
Y00682
Y007074
Y007328
Y007582
Y007836
X009868
Y007582
Y007328
Y007074
Y00682
Y006566
Y006312
Y006058
Y005804
Y00555
Y005296
Y005042
X010338Y005156
Y005397
Y005664
Y005918
X007442Y006007
Y005351
X009106Y00809
Y008344
X009868
Y00809
X010173Y008814
Y009068
Y009322
Y009576
X010046Y010185
Y010439
Y010693
X008611Y008979
X008357
T03
X00823Y011387
X008484
T04
X008058Y006833
X008312
X009398Y011519
X009652
T05
X00903Y010173
Y010427
Y010681
T06
X0106Y0048
X0075
Y0117
X0106
M30
