G04*
G04 #@! TF.GenerationSoftware,Altium Limited,Altium Designer,22.4.2 (48)*
G04*
G04 Layer_Color=16711935*
%FSLAX44Y44*%
%MOMM*%
G71*
G04*
G04 #@! TF.SameCoordinates,FA8E5277-3887-454B-883E-EC14CB0092E5*
G04*
G04*
G04 #@! TF.FilePolarity,Positive*
G04*
G01*
G75*
%ADD10C,0.2000*%
G36*
X742685Y577331D02*
X744220D01*
Y576545D01*
X742685D01*
Y573762D01*
X741964D01*
X737822Y576693D01*
Y577331D01*
X741964D01*
Y578200D01*
X742685D01*
Y577331D01*
D02*
G37*
G36*
X744220Y572477D02*
X742889Y571636D01*
X742879D01*
X742861Y571617D01*
X742833Y571599D01*
X742796Y571571D01*
X742695Y571506D01*
X742565Y571423D01*
X742427Y571321D01*
X742279Y571220D01*
X742140Y571118D01*
X742010Y571026D01*
X742001Y571016D01*
X741964Y570989D01*
X741909Y570942D01*
X741844Y570878D01*
X741705Y570739D01*
X741641Y570665D01*
X741585Y570591D01*
X741576Y570582D01*
X741567Y570563D01*
X741548Y570526D01*
X741520Y570471D01*
X741493Y570415D01*
X741465Y570351D01*
X741419Y570203D01*
Y570193D01*
X741409Y570175D01*
Y570138D01*
X741400Y570092D01*
X741391Y570027D01*
Y569953D01*
X741382Y569851D01*
Y568760D01*
X744220D01*
Y567910D01*
X737822D01*
Y570878D01*
X737831Y570952D01*
Y571035D01*
X737841Y571229D01*
X737868Y571432D01*
X737896Y571654D01*
X737942Y571858D01*
X737970Y571959D01*
X737998Y572043D01*
Y572052D01*
X738007Y572061D01*
X738035Y572117D01*
X738072Y572200D01*
X738137Y572301D01*
X738220Y572412D01*
X738331Y572533D01*
X738460Y572644D01*
X738608Y572755D01*
X738617D01*
X738626Y572764D01*
X738682Y572801D01*
X738774Y572838D01*
X738895Y572893D01*
X739033Y572939D01*
X739200Y572986D01*
X739375Y573013D01*
X739570Y573023D01*
X739579D01*
X739597D01*
X739634D01*
X739680Y573013D01*
X739745D01*
X739810Y573004D01*
X739967Y572967D01*
X740152Y572912D01*
X740346Y572838D01*
X740540Y572727D01*
X740633Y572653D01*
X740725Y572579D01*
X740734Y572570D01*
X740744Y572560D01*
X740771Y572533D01*
X740799Y572496D01*
X740836Y572449D01*
X740873Y572394D01*
X740919Y572320D01*
X740975Y572246D01*
X741021Y572154D01*
X741067Y572052D01*
X741123Y571941D01*
X741169Y571821D01*
X741206Y571682D01*
X741252Y571543D01*
X741280Y571386D01*
X741308Y571220D01*
X741317Y571238D01*
X741336Y571275D01*
X741373Y571331D01*
X741409Y571405D01*
X741511Y571571D01*
X741576Y571654D01*
X741631Y571728D01*
X741650Y571747D01*
X741696Y571793D01*
X741770Y571867D01*
X741862Y571959D01*
X741992Y572061D01*
X742131Y572181D01*
X742297Y572301D01*
X742482Y572431D01*
X744220Y573531D01*
Y572477D01*
D02*
G37*
G36*
X760889Y1037162D02*
X760880Y1037088D01*
Y1037005D01*
X760870Y1036811D01*
X760843Y1036608D01*
X760815Y1036386D01*
X760769Y1036182D01*
X760741Y1036080D01*
X760713Y1035997D01*
Y1035988D01*
X760704Y1035979D01*
X760676Y1035923D01*
X760639Y1035840D01*
X760574Y1035738D01*
X760491Y1035628D01*
X760380Y1035507D01*
X760251Y1035396D01*
X760103Y1035285D01*
X760094D01*
X760084Y1035276D01*
X760029Y1035239D01*
X759937Y1035202D01*
X759816Y1035147D01*
X759678Y1035100D01*
X759511Y1035054D01*
X759335Y1035026D01*
X759141Y1035017D01*
X759132D01*
X759114D01*
X759077D01*
X759030Y1035026D01*
X758966D01*
X758901Y1035036D01*
X758744Y1035073D01*
X758559Y1035128D01*
X758365Y1035202D01*
X758171Y1035313D01*
X758078Y1035387D01*
X757986Y1035461D01*
X757976Y1035470D01*
X757967Y1035480D01*
X757939Y1035507D01*
X757912Y1035544D01*
X757875Y1035591D01*
X757838Y1035646D01*
X757792Y1035720D01*
X757736Y1035794D01*
X757690Y1035886D01*
X757644Y1035988D01*
X757588Y1036099D01*
X757542Y1036219D01*
X757505Y1036358D01*
X757459Y1036497D01*
X757431Y1036654D01*
X757403Y1036820D01*
X757394Y1036802D01*
X757375Y1036765D01*
X757338Y1036709D01*
X757301Y1036635D01*
X757200Y1036469D01*
X757135Y1036386D01*
X757080Y1036312D01*
X757061Y1036293D01*
X757015Y1036247D01*
X756941Y1036173D01*
X756848Y1036080D01*
X756719Y1035979D01*
X756580Y1035859D01*
X756414Y1035738D01*
X756229Y1035609D01*
X754491Y1034509D01*
Y1035563D01*
X755822Y1036404D01*
X755831D01*
X755850Y1036423D01*
X755878Y1036441D01*
X755915Y1036469D01*
X756016Y1036534D01*
X756146Y1036617D01*
X756284Y1036718D01*
X756432Y1036820D01*
X756571Y1036922D01*
X756701Y1037014D01*
X756710Y1037024D01*
X756747Y1037051D01*
X756802Y1037097D01*
X756867Y1037162D01*
X757006Y1037301D01*
X757070Y1037375D01*
X757126Y1037449D01*
X757135Y1037458D01*
X757144Y1037477D01*
X757163Y1037514D01*
X757190Y1037569D01*
X757218Y1037625D01*
X757246Y1037689D01*
X757292Y1037837D01*
Y1037846D01*
X757301Y1037865D01*
Y1037902D01*
X757311Y1037948D01*
X757320Y1038013D01*
Y1038087D01*
X757329Y1038188D01*
Y1039279D01*
X754491D01*
Y1040130D01*
X760889D01*
Y1037162D01*
D02*
G37*
G36*
X756229Y1033187D02*
X756220D01*
X756201D01*
X756173Y1033177D01*
X756127Y1033168D01*
X756026Y1033140D01*
X755887Y1033103D01*
X755748Y1033048D01*
X755591Y1032974D01*
X755452Y1032881D01*
X755323Y1032771D01*
X755314Y1032752D01*
X755277Y1032715D01*
X755230Y1032641D01*
X755175Y1032539D01*
X755119Y1032429D01*
X755073Y1032290D01*
X755036Y1032133D01*
X755027Y1031957D01*
Y1031901D01*
X755036Y1031864D01*
X755046Y1031754D01*
X755082Y1031624D01*
X755129Y1031467D01*
X755203Y1031310D01*
X755314Y1031143D01*
X755378Y1031069D01*
X755452Y1030995D01*
X755462Y1030986D01*
X755471Y1030977D01*
X755499Y1030958D01*
X755526Y1030931D01*
X755628Y1030866D01*
X755758Y1030792D01*
X755915Y1030727D01*
X756109Y1030663D01*
X756340Y1030616D01*
X756460Y1030598D01*
X756590D01*
X756599D01*
X756617D01*
X756654D01*
X756701Y1030607D01*
X756756D01*
X756821Y1030616D01*
X756969Y1030644D01*
X757144Y1030690D01*
X757320Y1030755D01*
X757486Y1030847D01*
X757644Y1030977D01*
X757653D01*
X757662Y1030995D01*
X757708Y1031042D01*
X757773Y1031125D01*
X757847Y1031236D01*
X757912Y1031384D01*
X757976Y1031550D01*
X758023Y1031744D01*
X758041Y1031855D01*
Y1032031D01*
X758032Y1032105D01*
X758023Y1032197D01*
X757995Y1032308D01*
X757967Y1032419D01*
X757921Y1032539D01*
X757866Y1032660D01*
X757856Y1032669D01*
X757838Y1032706D01*
X757792Y1032761D01*
X757745Y1032835D01*
X757681Y1032909D01*
X757597Y1032983D01*
X757514Y1033066D01*
X757412Y1033131D01*
X757514Y1033871D01*
X760806Y1033251D01*
Y1030071D01*
X760057D01*
Y1032632D01*
X758328Y1032974D01*
X758337Y1032965D01*
X758346Y1032946D01*
X758365Y1032918D01*
X758392Y1032872D01*
X758420Y1032817D01*
X758457Y1032752D01*
X758531Y1032604D01*
X758605Y1032419D01*
X758670Y1032216D01*
X758716Y1031994D01*
X758735Y1031883D01*
Y1031680D01*
X758725Y1031624D01*
X758716Y1031550D01*
X758707Y1031467D01*
X758688Y1031375D01*
X758661Y1031273D01*
X758596Y1031051D01*
X758550Y1030931D01*
X758485Y1030810D01*
X758420Y1030690D01*
X758346Y1030570D01*
X758254Y1030459D01*
X758152Y1030348D01*
X758143Y1030339D01*
X758124Y1030321D01*
X758097Y1030293D01*
X758050Y1030256D01*
X757986Y1030210D01*
X757921Y1030163D01*
X757838Y1030108D01*
X757745Y1030052D01*
X757644Y1030006D01*
X757533Y1029951D01*
X757403Y1029904D01*
X757274Y1029858D01*
X757135Y1029821D01*
X756978Y1029793D01*
X756821Y1029775D01*
X756654Y1029766D01*
X756645D01*
X756617D01*
X756571D01*
X756506Y1029775D01*
X756432Y1029784D01*
X756349Y1029793D01*
X756247Y1029812D01*
X756146Y1029830D01*
X755905Y1029886D01*
X755656Y1029978D01*
X755526Y1030034D01*
X755406Y1030108D01*
X755277Y1030182D01*
X755156Y1030274D01*
X755147Y1030284D01*
X755119Y1030302D01*
X755082Y1030339D01*
X755036Y1030385D01*
X754981Y1030450D01*
X754907Y1030524D01*
X754842Y1030616D01*
X754768Y1030718D01*
X754694Y1030829D01*
X754630Y1030958D01*
X754565Y1031097D01*
X754500Y1031245D01*
X754454Y1031402D01*
X754417Y1031578D01*
X754389Y1031763D01*
X754380Y1031957D01*
Y1032040D01*
X754389Y1032105D01*
X754398Y1032179D01*
X754408Y1032262D01*
X754417Y1032364D01*
X754445Y1032466D01*
X754500Y1032697D01*
X754583Y1032928D01*
X754639Y1033048D01*
X754704Y1033168D01*
X754777Y1033279D01*
X754861Y1033390D01*
X754870Y1033399D01*
X754879Y1033418D01*
X754916Y1033436D01*
X754953Y1033473D01*
X754999Y1033520D01*
X755055Y1033566D01*
X755129Y1033621D01*
X755212Y1033667D01*
X755295Y1033723D01*
X755397Y1033778D01*
X755619Y1033880D01*
X755878Y1033963D01*
X756016Y1033991D01*
X756164Y1034009D01*
X756229Y1033187D01*
D02*
G37*
G36*
X792391Y615941D02*
X792474D01*
X792576Y615932D01*
X792687Y615913D01*
X792816Y615895D01*
X793084Y615848D01*
X793362Y615774D01*
X793639Y615673D01*
X793768Y615608D01*
X793898Y615534D01*
X793907Y615525D01*
X793926Y615516D01*
X793963Y615488D01*
X794000Y615451D01*
X794055Y615414D01*
X794120Y615358D01*
X794194Y615294D01*
X794268Y615220D01*
X794342Y615136D01*
X794425Y615053D01*
X794591Y614841D01*
X794749Y614591D01*
X794887Y614314D01*
Y614304D01*
X794906Y614277D01*
X794915Y614230D01*
X794943Y614175D01*
X794961Y614101D01*
X794989Y614008D01*
X795026Y613907D01*
X795054Y613796D01*
X795081Y613676D01*
X795118Y613537D01*
X795165Y613250D01*
X795202Y612927D01*
X795220Y612594D01*
Y612585D01*
Y612548D01*
Y612492D01*
X795211Y612427D01*
Y612335D01*
X795202Y612243D01*
X795192Y612122D01*
X795174Y612002D01*
X795128Y611734D01*
X795063Y611438D01*
X794970Y611142D01*
X794841Y610856D01*
X794832Y610846D01*
X794822Y610819D01*
X794804Y610782D01*
X794767Y610736D01*
X794730Y610671D01*
X794684Y610597D01*
X794564Y610430D01*
X794407Y610246D01*
X794222Y610061D01*
X794009Y609876D01*
X793759Y609719D01*
X793750Y609709D01*
X793722Y609700D01*
X793685Y609682D01*
X793639Y609654D01*
X793565Y609626D01*
X793491Y609598D01*
X793399Y609561D01*
X793297Y609524D01*
X793186Y609487D01*
X793066Y609450D01*
X792807Y609395D01*
X792511Y609349D01*
X792206Y609330D01*
X792114D01*
X792049Y609339D01*
X791966Y609349D01*
X791864Y609358D01*
X791762Y609367D01*
X791642Y609395D01*
X791392Y609450D01*
X791115Y609534D01*
X790976Y609589D01*
X790847Y609654D01*
X790717Y609737D01*
X790588Y609820D01*
X790579Y609829D01*
X790560Y609839D01*
X790523Y609866D01*
X790477Y609913D01*
X790431Y609959D01*
X790366Y610024D01*
X790301Y610098D01*
X790228Y610172D01*
X790154Y610264D01*
X790079Y610375D01*
X789996Y610486D01*
X789922Y610606D01*
X789858Y610745D01*
X789784Y610883D01*
X789728Y611031D01*
X789673Y611198D01*
X790505Y611392D01*
Y611383D01*
X790514Y611364D01*
X790533Y611327D01*
X790551Y611281D01*
X790570Y611226D01*
X790597Y611152D01*
X790671Y611004D01*
X790764Y610837D01*
X790875Y610671D01*
X791013Y610514D01*
X791161Y610375D01*
X791180Y610356D01*
X791235Y610320D01*
X791328Y610273D01*
X791448Y610209D01*
X791605Y610153D01*
X791781Y610098D01*
X791993Y610061D01*
X792225Y610051D01*
X792299D01*
X792345Y610061D01*
X792409D01*
X792483Y610070D01*
X792659Y610098D01*
X792853Y610135D01*
X793057Y610199D01*
X793269Y610292D01*
X793463Y610412D01*
X793473D01*
X793482Y610430D01*
X793547Y610477D01*
X793630Y610551D01*
X793732Y610662D01*
X793852Y610800D01*
X793963Y610957D01*
X794064Y611152D01*
X794157Y611364D01*
Y611373D01*
X794166Y611392D01*
X794175Y611420D01*
X794185Y611466D01*
X794203Y611521D01*
X794222Y611586D01*
X794249Y611743D01*
X794286Y611928D01*
X794323Y612132D01*
X794342Y612354D01*
X794351Y612594D01*
Y612603D01*
Y612631D01*
Y612677D01*
Y612733D01*
X794342Y612797D01*
Y612881D01*
X794333Y612973D01*
X794323Y613075D01*
X794296Y613297D01*
X794249Y613537D01*
X794194Y613777D01*
X794120Y614018D01*
Y614027D01*
X794111Y614045D01*
X794092Y614073D01*
X794074Y614119D01*
X794018Y614230D01*
X793935Y614360D01*
X793833Y614508D01*
X793704Y614665D01*
X793556Y614804D01*
X793380Y614933D01*
X793371D01*
X793353Y614942D01*
X793325Y614961D01*
X793288Y614979D01*
X793242Y614998D01*
X793186Y615025D01*
X793057Y615081D01*
X792890Y615136D01*
X792705Y615183D01*
X792502Y615220D01*
X792289Y615229D01*
X792225D01*
X792169Y615220D01*
X792104D01*
X792040Y615210D01*
X791873Y615173D01*
X791679Y615127D01*
X791485Y615053D01*
X791282Y614952D01*
X791180Y614896D01*
X791087Y614822D01*
X791078Y614813D01*
X791069Y614804D01*
X791041Y614776D01*
X791004Y614748D01*
X790967Y614702D01*
X790921Y614646D01*
X790865Y614591D01*
X790819Y614517D01*
X790764Y614434D01*
X790699Y614341D01*
X790643Y614249D01*
X790588Y614138D01*
X790542Y614018D01*
X790496Y613888D01*
X790449Y613750D01*
X790412Y613602D01*
X789562Y613814D01*
Y613824D01*
X789571Y613861D01*
X789589Y613916D01*
X789617Y613990D01*
X789645Y614073D01*
X789682Y614175D01*
X789728Y614286D01*
X789784Y614406D01*
X789913Y614665D01*
X790079Y614924D01*
X790181Y615053D01*
X790283Y615183D01*
X790394Y615294D01*
X790523Y615405D01*
X790533Y615414D01*
X790551Y615432D01*
X790597Y615451D01*
X790643Y615488D01*
X790717Y615534D01*
X790791Y615580D01*
X790893Y615626D01*
X790995Y615673D01*
X791115Y615728D01*
X791245Y615774D01*
X791383Y615821D01*
X791531Y615867D01*
X791688Y615904D01*
X791855Y615922D01*
X792030Y615941D01*
X792215Y615950D01*
X792317D01*
X792391Y615941D01*
D02*
G37*
G36*
X786668Y610837D02*
X786677Y610846D01*
X786723Y610883D01*
X786779Y610939D01*
X786871Y611004D01*
X786973Y611087D01*
X787102Y611179D01*
X787250Y611281D01*
X787417Y611383D01*
X787426D01*
X787435Y611392D01*
X787491Y611429D01*
X787583Y611475D01*
X787694Y611531D01*
X787824Y611595D01*
X787962Y611660D01*
X788101Y611725D01*
X788240Y611780D01*
Y611022D01*
X788230D01*
X788212Y611004D01*
X788175Y610994D01*
X788129Y610967D01*
X788073Y610939D01*
X788008Y610902D01*
X787851Y610810D01*
X787666Y610708D01*
X787482Y610578D01*
X787287Y610430D01*
X787093Y610273D01*
X787084Y610264D01*
X787075Y610255D01*
X787047Y610227D01*
X787010Y610199D01*
X786927Y610107D01*
X786816Y609996D01*
X786705Y609866D01*
X786585Y609719D01*
X786483Y609571D01*
X786391Y609413D01*
X785882D01*
Y615839D01*
X786668D01*
Y610837D01*
D02*
G37*
G36*
X792391Y551171D02*
X792474D01*
X792576Y551162D01*
X792687Y551143D01*
X792816Y551125D01*
X793084Y551078D01*
X793362Y551004D01*
X793639Y550903D01*
X793768Y550838D01*
X793898Y550764D01*
X793907Y550755D01*
X793926Y550746D01*
X793963Y550718D01*
X794000Y550681D01*
X794055Y550644D01*
X794120Y550588D01*
X794194Y550524D01*
X794268Y550450D01*
X794342Y550367D01*
X794425Y550283D01*
X794591Y550071D01*
X794749Y549821D01*
X794887Y549544D01*
Y549534D01*
X794906Y549507D01*
X794915Y549460D01*
X794943Y549405D01*
X794961Y549331D01*
X794989Y549239D01*
X795026Y549137D01*
X795054Y549026D01*
X795081Y548906D01*
X795118Y548767D01*
X795165Y548480D01*
X795202Y548157D01*
X795220Y547824D01*
Y547815D01*
Y547778D01*
Y547722D01*
X795211Y547658D01*
Y547565D01*
X795202Y547473D01*
X795192Y547352D01*
X795174Y547232D01*
X795128Y546964D01*
X795063Y546668D01*
X794970Y546372D01*
X794841Y546086D01*
X794832Y546077D01*
X794822Y546049D01*
X794804Y546012D01*
X794767Y545966D01*
X794730Y545901D01*
X794684Y545827D01*
X794564Y545661D01*
X794407Y545476D01*
X794222Y545291D01*
X794009Y545106D01*
X793759Y544949D01*
X793750Y544939D01*
X793722Y544930D01*
X793685Y544912D01*
X793639Y544884D01*
X793565Y544856D01*
X793491Y544828D01*
X793399Y544791D01*
X793297Y544754D01*
X793186Y544717D01*
X793066Y544680D01*
X792807Y544625D01*
X792511Y544579D01*
X792206Y544560D01*
X792114D01*
X792049Y544570D01*
X791966Y544579D01*
X791864Y544588D01*
X791762Y544597D01*
X791642Y544625D01*
X791392Y544680D01*
X791115Y544764D01*
X790976Y544819D01*
X790847Y544884D01*
X790717Y544967D01*
X790588Y545050D01*
X790579Y545060D01*
X790560Y545069D01*
X790523Y545097D01*
X790477Y545143D01*
X790431Y545189D01*
X790366Y545254D01*
X790301Y545328D01*
X790228Y545402D01*
X790154Y545494D01*
X790079Y545605D01*
X789996Y545716D01*
X789922Y545836D01*
X789858Y545975D01*
X789784Y546114D01*
X789728Y546261D01*
X789673Y546428D01*
X790505Y546622D01*
Y546613D01*
X790514Y546594D01*
X790533Y546557D01*
X790551Y546511D01*
X790570Y546456D01*
X790597Y546382D01*
X790671Y546234D01*
X790764Y546067D01*
X790875Y545901D01*
X791013Y545744D01*
X791161Y545605D01*
X791180Y545587D01*
X791235Y545550D01*
X791328Y545503D01*
X791448Y545439D01*
X791605Y545383D01*
X791781Y545328D01*
X791993Y545291D01*
X792225Y545281D01*
X792299D01*
X792345Y545291D01*
X792409D01*
X792483Y545300D01*
X792659Y545328D01*
X792853Y545365D01*
X793057Y545429D01*
X793269Y545522D01*
X793463Y545642D01*
X793473D01*
X793482Y545661D01*
X793547Y545707D01*
X793630Y545781D01*
X793732Y545892D01*
X793852Y546030D01*
X793963Y546188D01*
X794064Y546382D01*
X794157Y546594D01*
Y546604D01*
X794166Y546622D01*
X794175Y546650D01*
X794185Y546696D01*
X794203Y546751D01*
X794222Y546816D01*
X794249Y546973D01*
X794286Y547158D01*
X794323Y547362D01*
X794342Y547584D01*
X794351Y547824D01*
Y547833D01*
Y547861D01*
Y547907D01*
Y547963D01*
X794342Y548027D01*
Y548111D01*
X794333Y548203D01*
X794323Y548305D01*
X794296Y548527D01*
X794249Y548767D01*
X794194Y549007D01*
X794120Y549248D01*
Y549257D01*
X794111Y549276D01*
X794092Y549303D01*
X794074Y549349D01*
X794018Y549460D01*
X793935Y549590D01*
X793833Y549738D01*
X793704Y549895D01*
X793556Y550034D01*
X793380Y550163D01*
X793371D01*
X793353Y550172D01*
X793325Y550191D01*
X793288Y550209D01*
X793242Y550228D01*
X793186Y550256D01*
X793057Y550311D01*
X792890Y550367D01*
X792705Y550413D01*
X792502Y550450D01*
X792289Y550459D01*
X792225D01*
X792169Y550450D01*
X792104D01*
X792040Y550440D01*
X791873Y550403D01*
X791679Y550357D01*
X791485Y550283D01*
X791282Y550182D01*
X791180Y550126D01*
X791087Y550052D01*
X791078Y550043D01*
X791069Y550034D01*
X791041Y550006D01*
X791004Y549978D01*
X790967Y549932D01*
X790921Y549876D01*
X790865Y549821D01*
X790819Y549747D01*
X790764Y549664D01*
X790699Y549571D01*
X790643Y549479D01*
X790588Y549368D01*
X790542Y549248D01*
X790496Y549118D01*
X790449Y548980D01*
X790412Y548832D01*
X789562Y549044D01*
Y549054D01*
X789571Y549091D01*
X789589Y549146D01*
X789617Y549220D01*
X789645Y549303D01*
X789682Y549405D01*
X789728Y549516D01*
X789784Y549636D01*
X789913Y549895D01*
X790079Y550154D01*
X790181Y550283D01*
X790283Y550413D01*
X790394Y550524D01*
X790523Y550635D01*
X790533Y550644D01*
X790551Y550662D01*
X790597Y550681D01*
X790643Y550718D01*
X790717Y550764D01*
X790791Y550810D01*
X790893Y550857D01*
X790995Y550903D01*
X791115Y550958D01*
X791245Y551004D01*
X791383Y551051D01*
X791531Y551097D01*
X791688Y551134D01*
X791855Y551152D01*
X792030Y551171D01*
X792215Y551180D01*
X792317D01*
X792391Y551171D01*
D02*
G37*
G36*
X788952Y551060D02*
Y551023D01*
Y550967D01*
X788942Y550894D01*
X788933Y550810D01*
X788915Y550718D01*
X788896Y550625D01*
X788859Y550524D01*
Y550514D01*
X788850Y550505D01*
X788831Y550450D01*
X788794Y550367D01*
X788739Y550256D01*
X788665Y550126D01*
X788572Y549978D01*
X788471Y549830D01*
X788341Y549673D01*
Y549664D01*
X788323Y549655D01*
X788277Y549599D01*
X788193Y549516D01*
X788073Y549396D01*
X787934Y549257D01*
X787759Y549091D01*
X787546Y548906D01*
X787315Y548712D01*
X787306Y548702D01*
X787269Y548675D01*
X787213Y548628D01*
X787149Y548573D01*
X787066Y548499D01*
X786964Y548416D01*
X786862Y548323D01*
X786742Y548222D01*
X786511Y548000D01*
X786280Y547778D01*
X786169Y547667D01*
X786067Y547556D01*
X785975Y547454D01*
X785900Y547352D01*
Y547343D01*
X785882Y547334D01*
X785863Y547306D01*
X785845Y547269D01*
X785780Y547168D01*
X785706Y547047D01*
X785642Y546899D01*
X785577Y546742D01*
X785540Y546567D01*
X785521Y546400D01*
Y546391D01*
Y546382D01*
X785531Y546326D01*
X785540Y546234D01*
X785568Y546132D01*
X785605Y546003D01*
X785669Y545873D01*
X785753Y545744D01*
X785863Y545614D01*
X785882Y545596D01*
X785928Y545559D01*
X785993Y545513D01*
X786095Y545448D01*
X786224Y545392D01*
X786372Y545337D01*
X786548Y545300D01*
X786742Y545291D01*
X786797D01*
X786834Y545300D01*
X786945Y545309D01*
X787075Y545337D01*
X787213Y545374D01*
X787371Y545439D01*
X787518Y545522D01*
X787657Y545633D01*
X787676Y545651D01*
X787713Y545697D01*
X787768Y545771D01*
X787824Y545882D01*
X787888Y546012D01*
X787944Y546178D01*
X787981Y546363D01*
X787999Y546576D01*
X788804Y546493D01*
Y546483D01*
X788794Y546456D01*
Y546409D01*
X788785Y546345D01*
X788767Y546271D01*
X788748Y546188D01*
X788720Y546086D01*
X788693Y545984D01*
X788619Y545762D01*
X788508Y545540D01*
X788443Y545429D01*
X788360Y545318D01*
X788277Y545217D01*
X788184Y545124D01*
X788175Y545115D01*
X788156Y545106D01*
X788129Y545078D01*
X788083Y545050D01*
X788027Y545013D01*
X787962Y544976D01*
X787888Y544930D01*
X787796Y544884D01*
X787694Y544838D01*
X787583Y544791D01*
X787463Y544754D01*
X787334Y544717D01*
X787195Y544690D01*
X787047Y544662D01*
X786890Y544653D01*
X786723Y544643D01*
X786631D01*
X786566Y544653D01*
X786492Y544662D01*
X786400Y544671D01*
X786298Y544690D01*
X786196Y544708D01*
X785956Y544773D01*
X785716Y544865D01*
X785595Y544921D01*
X785475Y544986D01*
X785364Y545069D01*
X785263Y545161D01*
X785253Y545170D01*
X785235Y545180D01*
X785216Y545217D01*
X785179Y545254D01*
X785133Y545300D01*
X785087Y545365D01*
X785041Y545429D01*
X784985Y545513D01*
X784893Y545688D01*
X784800Y545910D01*
X784763Y546021D01*
X784745Y546151D01*
X784726Y546280D01*
X784717Y546419D01*
Y546437D01*
Y546483D01*
X784726Y546557D01*
X784736Y546659D01*
X784754Y546770D01*
X784791Y546899D01*
X784828Y547038D01*
X784883Y547177D01*
X784893Y547195D01*
X784911Y547242D01*
X784948Y547315D01*
X785004Y547417D01*
X785078Y547528D01*
X785170Y547667D01*
X785281Y547805D01*
X785411Y547963D01*
X785429Y547981D01*
X785475Y548037D01*
X785521Y548083D01*
X785568Y548129D01*
X785623Y548185D01*
X785697Y548259D01*
X785771Y548332D01*
X785863Y548416D01*
X785956Y548508D01*
X786067Y548610D01*
X786187Y548712D01*
X786317Y548832D01*
X786464Y548952D01*
X786612Y549081D01*
X786622Y549091D01*
X786640Y549109D01*
X786677Y549137D01*
X786723Y549174D01*
X786779Y549229D01*
X786844Y549285D01*
X786992Y549405D01*
X787149Y549544D01*
X787297Y549682D01*
X787426Y549803D01*
X787482Y549849D01*
X787528Y549895D01*
X787537Y549904D01*
X787565Y549932D01*
X787602Y549969D01*
X787648Y550024D01*
X787694Y550089D01*
X787750Y550154D01*
X787861Y550311D01*
X784708D01*
Y551069D01*
X788952D01*
Y551060D01*
D02*
G37*
G36*
X834079Y1141721D02*
X834153Y1141712D01*
X834227Y1141702D01*
X834421Y1141665D01*
X834625Y1141610D01*
X834837Y1141527D01*
X834948Y1141471D01*
X835050Y1141406D01*
X835142Y1141332D01*
X835235Y1141249D01*
X835244Y1141240D01*
X835253Y1141231D01*
X835272Y1141194D01*
X835300Y1141157D01*
X835337Y1141111D01*
X835374Y1141046D01*
X835410Y1140972D01*
X835457Y1140889D01*
X835494Y1140796D01*
X835531Y1140685D01*
X835568Y1140574D01*
X835605Y1140445D01*
X835623Y1140306D01*
X835651Y1140149D01*
X835660Y1139992D01*
Y1139816D01*
X834893Y1139705D01*
Y1139715D01*
Y1139733D01*
Y1139770D01*
X834883Y1139826D01*
X834874Y1139881D01*
Y1139946D01*
X834846Y1140103D01*
X834819Y1140269D01*
X834763Y1140436D01*
X834708Y1140584D01*
X834671Y1140648D01*
X834625Y1140704D01*
X834615Y1140713D01*
X834578Y1140741D01*
X834523Y1140787D01*
X834449Y1140833D01*
X834347Y1140889D01*
X834236Y1140926D01*
X834098Y1140963D01*
X833950Y1140972D01*
X833894D01*
X833839Y1140963D01*
X833755Y1140953D01*
X833672Y1140935D01*
X833580Y1140917D01*
X833487Y1140880D01*
X833395Y1140833D01*
X833386Y1140824D01*
X833358Y1140806D01*
X833321Y1140769D01*
X833266Y1140732D01*
X833219Y1140667D01*
X833164Y1140602D01*
X833118Y1140528D01*
X833081Y1140436D01*
Y1140426D01*
X833062Y1140389D01*
X833053Y1140325D01*
X833034Y1140241D01*
X833016Y1140131D01*
X833007Y1139992D01*
X832988Y1139826D01*
Y1139631D01*
Y1135221D01*
X832138D01*
Y1139585D01*
Y1139594D01*
Y1139622D01*
Y1139659D01*
Y1139715D01*
X832147Y1139789D01*
Y1139863D01*
X832165Y1140038D01*
X832184Y1140241D01*
X832221Y1140454D01*
X832276Y1140648D01*
X832341Y1140833D01*
Y1140843D01*
X832350Y1140852D01*
X832378Y1140907D01*
X832424Y1140981D01*
X832489Y1141083D01*
X832581Y1141185D01*
X832683Y1141295D01*
X832812Y1141406D01*
X832960Y1141499D01*
X832979Y1141508D01*
X833034Y1141536D01*
X833118Y1141573D01*
X833238Y1141610D01*
X833386Y1141656D01*
X833552Y1141693D01*
X833737Y1141721D01*
X833940Y1141730D01*
X834024D01*
X834079Y1141721D01*
D02*
G37*
G36*
X828902Y1136617D02*
X828911Y1136627D01*
X828957Y1136664D01*
X829013Y1136719D01*
X829105Y1136784D01*
X829207Y1136867D01*
X829336Y1136959D01*
X829484Y1137061D01*
X829650Y1137163D01*
X829660D01*
X829669Y1137172D01*
X829724Y1137209D01*
X829817Y1137255D01*
X829928Y1137311D01*
X830057Y1137375D01*
X830196Y1137440D01*
X830335Y1137505D01*
X830473Y1137560D01*
Y1136802D01*
X830464D01*
X830446Y1136784D01*
X830409Y1136774D01*
X830362Y1136747D01*
X830307Y1136719D01*
X830242Y1136682D01*
X830085Y1136590D01*
X829900Y1136488D01*
X829715Y1136358D01*
X829521Y1136210D01*
X829327Y1136053D01*
X829318Y1136044D01*
X829308Y1136035D01*
X829281Y1136007D01*
X829244Y1135979D01*
X829160Y1135887D01*
X829050Y1135776D01*
X828939Y1135647D01*
X828818Y1135499D01*
X828717Y1135351D01*
X828624Y1135193D01*
X828116D01*
Y1141619D01*
X828902D01*
Y1136617D01*
D02*
G37*
G36*
X862378Y783162D02*
X862369Y783088D01*
Y783005D01*
X862359Y782811D01*
X862332Y782607D01*
X862304Y782386D01*
X862258Y782182D01*
X862230Y782081D01*
X862202Y781997D01*
Y781988D01*
X862193Y781979D01*
X862165Y781923D01*
X862128Y781840D01*
X862064Y781738D01*
X861980Y781628D01*
X861869Y781507D01*
X861740Y781396D01*
X861592Y781285D01*
X861583D01*
X861573Y781276D01*
X861518Y781239D01*
X861425Y781202D01*
X861305Y781147D01*
X861167Y781100D01*
X861000Y781054D01*
X860825Y781027D01*
X860630Y781017D01*
X860621D01*
X860603D01*
X860566D01*
X860519Y781027D01*
X860455D01*
X860390Y781036D01*
X860233Y781073D01*
X860048Y781128D01*
X859854Y781202D01*
X859660Y781313D01*
X859567Y781387D01*
X859475Y781461D01*
X859465Y781470D01*
X859456Y781479D01*
X859428Y781507D01*
X859401Y781544D01*
X859364Y781590D01*
X859327Y781646D01*
X859281Y781720D01*
X859225Y781794D01*
X859179Y781886D01*
X859133Y781988D01*
X859077Y782099D01*
X859031Y782219D01*
X858994Y782358D01*
X858948Y782497D01*
X858920Y782654D01*
X858892Y782820D01*
X858883Y782802D01*
X858865Y782765D01*
X858828Y782709D01*
X858791Y782635D01*
X858689Y782469D01*
X858624Y782386D01*
X858569Y782312D01*
X858550Y782293D01*
X858504Y782247D01*
X858430Y782173D01*
X858337Y782081D01*
X858208Y781979D01*
X858069Y781859D01*
X857903Y781738D01*
X857718Y781609D01*
X855980Y780509D01*
Y781563D01*
X857311Y782404D01*
X857320D01*
X857339Y782423D01*
X857367Y782441D01*
X857404Y782469D01*
X857505Y782533D01*
X857635Y782617D01*
X857774Y782718D01*
X857921Y782820D01*
X858060Y782922D01*
X858190Y783014D01*
X858199Y783024D01*
X858236Y783051D01*
X858291Y783098D01*
X858356Y783162D01*
X858495Y783301D01*
X858559Y783375D01*
X858615Y783449D01*
X858624Y783458D01*
X858633Y783477D01*
X858652Y783514D01*
X858680Y783569D01*
X858707Y783624D01*
X858735Y783689D01*
X858781Y783837D01*
Y783846D01*
X858791Y783865D01*
Y783902D01*
X858800Y783948D01*
X858809Y784013D01*
Y784087D01*
X858818Y784189D01*
Y785279D01*
X855980D01*
Y786130D01*
X862378D01*
Y783162D01*
D02*
G37*
G36*
X856155Y780111D02*
X856239Y780102D01*
X856331Y780083D01*
X856424Y780065D01*
X856525Y780028D01*
X856535D01*
X856544Y780019D01*
X856599Y780000D01*
X856683Y779963D01*
X856794Y779908D01*
X856923Y779834D01*
X857071Y779741D01*
X857219Y779640D01*
X857376Y779510D01*
X857385D01*
X857394Y779492D01*
X857450Y779445D01*
X857533Y779362D01*
X857653Y779242D01*
X857792Y779103D01*
X857958Y778928D01*
X858143Y778715D01*
X858337Y778484D01*
X858347Y778475D01*
X858374Y778438D01*
X858421Y778382D01*
X858476Y778317D01*
X858550Y778234D01*
X858633Y778133D01*
X858726Y778031D01*
X858828Y777911D01*
X859049Y777680D01*
X859271Y777449D01*
X859382Y777337D01*
X859493Y777236D01*
X859595Y777143D01*
X859697Y777069D01*
X859706D01*
X859715Y777051D01*
X859743Y777032D01*
X859780Y777014D01*
X859882Y776949D01*
X860002Y776875D01*
X860150Y776811D01*
X860307Y776746D01*
X860482Y776709D01*
X860649Y776690D01*
X860658D01*
X860667D01*
X860723Y776700D01*
X860815Y776709D01*
X860917Y776737D01*
X861047Y776774D01*
X861176Y776838D01*
X861305Y776921D01*
X861435Y777032D01*
X861453Y777051D01*
X861490Y777097D01*
X861536Y777162D01*
X861601Y777263D01*
X861657Y777393D01*
X861712Y777541D01*
X861749Y777717D01*
X861758Y777911D01*
Y777966D01*
X861749Y778003D01*
X861740Y778114D01*
X861712Y778244D01*
X861675Y778382D01*
X861610Y778539D01*
X861527Y778687D01*
X861416Y778826D01*
X861398Y778845D01*
X861352Y778882D01*
X861278Y778937D01*
X861167Y778992D01*
X861037Y779057D01*
X860871Y779113D01*
X860686Y779150D01*
X860473Y779168D01*
X860556Y779973D01*
X860566D01*
X860593Y779963D01*
X860640D01*
X860704Y779954D01*
X860778Y779936D01*
X860862Y779917D01*
X860963Y779889D01*
X861065Y779862D01*
X861287Y779788D01*
X861509Y779677D01*
X861620Y779612D01*
X861731Y779529D01*
X861832Y779445D01*
X861925Y779353D01*
X861934Y779344D01*
X861943Y779325D01*
X861971Y779298D01*
X861999Y779251D01*
X862036Y779196D01*
X862073Y779131D01*
X862119Y779057D01*
X862165Y778965D01*
X862211Y778863D01*
X862258Y778752D01*
X862295Y778632D01*
X862332Y778503D01*
X862359Y778364D01*
X862387Y778216D01*
X862396Y778059D01*
X862406Y777892D01*
Y777800D01*
X862396Y777735D01*
X862387Y777661D01*
X862378Y777569D01*
X862359Y777467D01*
X862341Y777365D01*
X862276Y777125D01*
X862184Y776885D01*
X862128Y776764D01*
X862064Y776644D01*
X861980Y776533D01*
X861888Y776431D01*
X861879Y776422D01*
X861869Y776404D01*
X861832Y776385D01*
X861795Y776348D01*
X861749Y776302D01*
X861684Y776256D01*
X861620Y776209D01*
X861536Y776154D01*
X861361Y776062D01*
X861139Y775969D01*
X861028Y775932D01*
X860899Y775914D01*
X860769Y775895D01*
X860630Y775886D01*
X860612D01*
X860566D01*
X860492Y775895D01*
X860390Y775904D01*
X860279Y775923D01*
X860150Y775960D01*
X860011Y775997D01*
X859872Y776052D01*
X859854Y776062D01*
X859808Y776080D01*
X859734Y776117D01*
X859632Y776173D01*
X859521Y776246D01*
X859382Y776339D01*
X859244Y776450D01*
X859086Y776579D01*
X859068Y776598D01*
X859012Y776644D01*
X858966Y776690D01*
X858920Y776737D01*
X858865Y776792D01*
X858791Y776866D01*
X858717Y776940D01*
X858633Y777032D01*
X858541Y777125D01*
X858439Y777236D01*
X858337Y777356D01*
X858217Y777485D01*
X858097Y777633D01*
X857968Y777781D01*
X857958Y777791D01*
X857940Y777809D01*
X857912Y777846D01*
X857875Y777892D01*
X857820Y777948D01*
X857764Y778012D01*
X857644Y778160D01*
X857505Y778317D01*
X857367Y778465D01*
X857246Y778595D01*
X857200Y778650D01*
X857154Y778697D01*
X857145Y778706D01*
X857117Y778734D01*
X857080Y778771D01*
X857025Y778817D01*
X856960Y778863D01*
X856895Y778919D01*
X856738Y779029D01*
Y775877D01*
X855980D01*
Y780120D01*
X855989D01*
X856026D01*
X856082D01*
X856155Y780111D01*
D02*
G37*
G36*
X812959Y793542D02*
X812950Y793468D01*
Y793385D01*
X812940Y793191D01*
X812913Y792988D01*
X812885Y792766D01*
X812839Y792562D01*
X812811Y792460D01*
X812783Y792377D01*
Y792368D01*
X812774Y792359D01*
X812746Y792303D01*
X812709Y792220D01*
X812645Y792118D01*
X812561Y792008D01*
X812450Y791887D01*
X812321Y791776D01*
X812173Y791665D01*
X812164D01*
X812154Y791656D01*
X812099Y791619D01*
X812007Y791582D01*
X811886Y791527D01*
X811748Y791480D01*
X811581Y791434D01*
X811405Y791406D01*
X811211Y791397D01*
X811202D01*
X811184D01*
X811147D01*
X811100Y791406D01*
X811036D01*
X810971Y791416D01*
X810814Y791453D01*
X810629Y791508D01*
X810435Y791582D01*
X810241Y791693D01*
X810148Y791767D01*
X810056Y791841D01*
X810046Y791850D01*
X810037Y791860D01*
X810010Y791887D01*
X809982Y791924D01*
X809945Y791971D01*
X809908Y792026D01*
X809862Y792100D01*
X809806Y792174D01*
X809760Y792266D01*
X809714Y792368D01*
X809658Y792479D01*
X809612Y792599D01*
X809575Y792738D01*
X809529Y792877D01*
X809501Y793034D01*
X809473Y793200D01*
X809464Y793182D01*
X809445Y793145D01*
X809408Y793089D01*
X809371Y793015D01*
X809270Y792849D01*
X809205Y792766D01*
X809150Y792692D01*
X809131Y792673D01*
X809085Y792627D01*
X809011Y792553D01*
X808919Y792460D01*
X808789Y792359D01*
X808650Y792239D01*
X808484Y792118D01*
X808299Y791989D01*
X806561Y790889D01*
Y791943D01*
X807892Y792784D01*
X807902D01*
X807920Y792803D01*
X807948Y792821D01*
X807985Y792849D01*
X808086Y792914D01*
X808216Y792997D01*
X808354Y793099D01*
X808502Y793200D01*
X808641Y793302D01*
X808771Y793394D01*
X808780Y793404D01*
X808817Y793431D01*
X808872Y793477D01*
X808937Y793542D01*
X809076Y793681D01*
X809140Y793755D01*
X809196Y793829D01*
X809205Y793838D01*
X809214Y793857D01*
X809233Y793894D01*
X809261Y793949D01*
X809288Y794005D01*
X809316Y794069D01*
X809362Y794217D01*
Y794226D01*
X809371Y794245D01*
Y794282D01*
X809381Y794328D01*
X809390Y794393D01*
Y794467D01*
X809399Y794568D01*
Y795659D01*
X806561D01*
Y796510D01*
X812959D01*
Y793542D01*
D02*
G37*
G36*
X808354Y789594D02*
X808345D01*
X808327Y789585D01*
X808290Y789576D01*
X808243Y789567D01*
X808188Y789557D01*
X808123Y789539D01*
X807985Y789493D01*
X807818Y789428D01*
X807661Y789345D01*
X807513Y789252D01*
X807384Y789141D01*
X807374Y789123D01*
X807337Y789086D01*
X807291Y789012D01*
X807245Y788920D01*
X807189Y788809D01*
X807143Y788670D01*
X807106Y788513D01*
X807097Y788346D01*
Y788291D01*
X807106Y788254D01*
X807116Y788152D01*
X807143Y788023D01*
X807189Y787875D01*
X807254Y787718D01*
X807347Y787560D01*
X807476Y787412D01*
X807495Y787394D01*
X807550Y787348D01*
X807633Y787292D01*
X807744Y787218D01*
X807883Y787144D01*
X808040Y787089D01*
X808225Y787043D01*
X808428Y787024D01*
X808438D01*
X808456D01*
X808484D01*
X808521Y787033D01*
X808623Y787043D01*
X808743Y787070D01*
X808891Y787107D01*
X809039Y787172D01*
X809187Y787264D01*
X809325Y787385D01*
X809344Y787403D01*
X809381Y787449D01*
X809436Y787523D01*
X809501Y787625D01*
X809566Y787755D01*
X809621Y787912D01*
X809658Y788087D01*
X809677Y788281D01*
Y788365D01*
X809667Y788429D01*
X809658Y788513D01*
X809640Y788605D01*
X809621Y788716D01*
X809593Y788836D01*
X810287Y788744D01*
Y788698D01*
X810278Y788661D01*
Y788540D01*
X810296Y788439D01*
X810315Y788318D01*
X810342Y788180D01*
X810388Y788023D01*
X810453Y787875D01*
X810536Y787718D01*
Y787708D01*
X810546Y787699D01*
X810583Y787653D01*
X810647Y787588D01*
X810731Y787514D01*
X810851Y787440D01*
X810990Y787375D01*
X811147Y787329D01*
X811239Y787311D01*
X811341D01*
X811350D01*
X811359D01*
X811415D01*
X811489Y787329D01*
X811590Y787348D01*
X811701Y787385D01*
X811822Y787431D01*
X811942Y787505D01*
X812053Y787607D01*
X812062Y787616D01*
X812099Y787662D01*
X812145Y787727D01*
X812201Y787810D01*
X812247Y787921D01*
X812293Y788050D01*
X812330Y788198D01*
X812339Y788365D01*
Y788439D01*
X812321Y788522D01*
X812302Y788633D01*
X812265Y788753D01*
X812219Y788873D01*
X812145Y789003D01*
X812053Y789123D01*
X812044Y789132D01*
X811997Y789169D01*
X811933Y789225D01*
X811840Y789289D01*
X811720Y789354D01*
X811572Y789419D01*
X811396Y789474D01*
X811193Y789511D01*
X811332Y790297D01*
X811341D01*
X811369Y790288D01*
X811405Y790279D01*
X811461Y790269D01*
X811526Y790251D01*
X811600Y790223D01*
X811775Y790168D01*
X811979Y790075D01*
X812182Y789964D01*
X812376Y789826D01*
X812552Y789650D01*
X812561Y789641D01*
X812570Y789622D01*
X812589Y789594D01*
X812617Y789557D01*
X812654Y789511D01*
X812691Y789446D01*
X812728Y789382D01*
X812774Y789298D01*
X812848Y789114D01*
X812922Y788901D01*
X812968Y788651D01*
X812987Y788522D01*
Y788291D01*
X812977Y788189D01*
X812959Y788069D01*
X812931Y787921D01*
X812885Y787755D01*
X812829Y787588D01*
X812755Y787422D01*
Y787412D01*
X812746Y787403D01*
X812718Y787348D01*
X812663Y787264D01*
X812598Y787172D01*
X812506Y787061D01*
X812404Y786950D01*
X812284Y786839D01*
X812145Y786747D01*
X812127Y786738D01*
X812081Y786710D01*
X811997Y786673D01*
X811896Y786627D01*
X811775Y786580D01*
X811637Y786543D01*
X811479Y786516D01*
X811322Y786506D01*
X811304D01*
X811248D01*
X811174Y786516D01*
X811073Y786534D01*
X810953Y786562D01*
X810823Y786608D01*
X810694Y786664D01*
X810564Y786738D01*
X810546Y786747D01*
X810509Y786775D01*
X810444Y786830D01*
X810370Y786904D01*
X810287Y786996D01*
X810194Y787107D01*
X810111Y787237D01*
X810028Y787394D01*
Y787385D01*
X810019Y787366D01*
X810010Y787338D01*
X810000Y787301D01*
X809963Y787200D01*
X809908Y787070D01*
X809834Y786922D01*
X809741Y786775D01*
X809621Y786636D01*
X809482Y786506D01*
X809464Y786497D01*
X809408Y786460D01*
X809316Y786405D01*
X809196Y786349D01*
X809048Y786294D01*
X808872Y786238D01*
X808669Y786201D01*
X808447Y786192D01*
X808438D01*
X808410D01*
X808364D01*
X808308Y786201D01*
X808234Y786210D01*
X808151Y786229D01*
X808059Y786247D01*
X807957Y786266D01*
X807735Y786340D01*
X807615Y786395D01*
X807504Y786451D01*
X807384Y786525D01*
X807263Y786608D01*
X807143Y786701D01*
X807032Y786812D01*
X807023Y786821D01*
X807005Y786839D01*
X806977Y786876D01*
X806940Y786922D01*
X806894Y786978D01*
X806848Y787052D01*
X806792Y787135D01*
X806746Y787237D01*
X806690Y787338D01*
X806635Y787459D01*
X806589Y787579D01*
X806542Y787718D01*
X806505Y787866D01*
X806478Y788023D01*
X806459Y788180D01*
X806450Y788355D01*
Y788439D01*
X806459Y788494D01*
X806468Y788568D01*
X806478Y788651D01*
X806496Y788744D01*
X806515Y788846D01*
X806570Y789067D01*
X806663Y789298D01*
X806718Y789419D01*
X806783Y789530D01*
X806866Y789641D01*
X806949Y789752D01*
X806958Y789761D01*
X806977Y789779D01*
X807005Y789807D01*
X807042Y789835D01*
X807088Y789881D01*
X807153Y789927D01*
X807217Y789983D01*
X807300Y790038D01*
X807393Y790094D01*
X807485Y790149D01*
X807707Y790251D01*
X807966Y790334D01*
X808105Y790362D01*
X808253Y790380D01*
X808354Y789594D01*
D02*
G37*
%LPC*%
G36*
X741964Y576545D02*
X739098D01*
X741964Y574530D01*
Y576545D01*
D02*
G37*
G36*
X739579Y572154D02*
X739570D01*
X739560D01*
X739505Y572144D01*
X739422Y572135D01*
X739311Y572117D01*
X739200Y572070D01*
X739070Y572015D01*
X738950Y571932D01*
X738830Y571821D01*
X738821Y571802D01*
X738784Y571756D01*
X738737Y571682D01*
X738682Y571562D01*
X738626Y571423D01*
X738580Y571238D01*
X738543Y571026D01*
X738534Y570776D01*
Y568760D01*
X740651D01*
Y570665D01*
X740642Y570776D01*
X740633Y570905D01*
X740624Y571053D01*
X740605Y571201D01*
X740577Y571349D01*
X740540Y571479D01*
X740531Y571497D01*
X740513Y571534D01*
X740485Y571590D01*
X740448Y571664D01*
X740392Y571747D01*
X740328Y571830D01*
X740245Y571913D01*
X740152Y571978D01*
X740143Y571987D01*
X740106Y572006D01*
X740050Y572033D01*
X739976Y572070D01*
X739893Y572098D01*
X739801Y572126D01*
X739690Y572144D01*
X739579Y572154D01*
D02*
G37*
G36*
X760177Y1039279D02*
X758060D01*
Y1037375D01*
X758069Y1037264D01*
X758078Y1037134D01*
X758087Y1036987D01*
X758106Y1036839D01*
X758134Y1036691D01*
X758171Y1036561D01*
X758180Y1036543D01*
X758198Y1036506D01*
X758226Y1036450D01*
X758263Y1036376D01*
X758318Y1036293D01*
X758383Y1036210D01*
X758466Y1036127D01*
X758559Y1036062D01*
X758568Y1036053D01*
X758605Y1036034D01*
X758661Y1036006D01*
X758735Y1035970D01*
X758818Y1035942D01*
X758910Y1035914D01*
X759021Y1035896D01*
X759132Y1035886D01*
X759141D01*
X759151D01*
X759206Y1035896D01*
X759289Y1035905D01*
X759400Y1035923D01*
X759511Y1035970D01*
X759641Y1036025D01*
X759761Y1036108D01*
X759881Y1036219D01*
X759890Y1036238D01*
X759927Y1036284D01*
X759974Y1036358D01*
X760029Y1036478D01*
X760084Y1036617D01*
X760131Y1036802D01*
X760168Y1037014D01*
X760177Y1037264D01*
Y1039279D01*
D02*
G37*
G36*
X861666Y785279D02*
X859549D01*
Y783375D01*
X859558Y783264D01*
X859567Y783135D01*
X859576Y782987D01*
X859595Y782839D01*
X859623Y782691D01*
X859660Y782561D01*
X859669Y782543D01*
X859687Y782506D01*
X859715Y782450D01*
X859752Y782376D01*
X859808Y782293D01*
X859872Y782210D01*
X859956Y782127D01*
X860048Y782062D01*
X860057Y782053D01*
X860094Y782034D01*
X860150Y782007D01*
X860224Y781970D01*
X860307Y781942D01*
X860399Y781914D01*
X860510Y781896D01*
X860621Y781886D01*
X860630D01*
X860640D01*
X860695Y781896D01*
X860778Y781905D01*
X860889Y781923D01*
X861000Y781970D01*
X861130Y782025D01*
X861250Y782108D01*
X861370Y782219D01*
X861379Y782238D01*
X861416Y782284D01*
X861462Y782358D01*
X861518Y782478D01*
X861573Y782617D01*
X861620Y782802D01*
X861657Y783014D01*
X861666Y783264D01*
Y785279D01*
D02*
G37*
G36*
X812247Y795659D02*
X810130D01*
Y793755D01*
X810139Y793644D01*
X810148Y793514D01*
X810157Y793367D01*
X810176Y793219D01*
X810204Y793071D01*
X810241Y792941D01*
X810250Y792923D01*
X810268Y792886D01*
X810296Y792830D01*
X810333Y792756D01*
X810388Y792673D01*
X810453Y792590D01*
X810536Y792507D01*
X810629Y792442D01*
X810638Y792433D01*
X810675Y792414D01*
X810731Y792387D01*
X810805Y792350D01*
X810888Y792322D01*
X810980Y792294D01*
X811091Y792276D01*
X811202Y792266D01*
X811211D01*
X811221D01*
X811276Y792276D01*
X811359Y792285D01*
X811470Y792303D01*
X811581Y792350D01*
X811711Y792405D01*
X811831Y792488D01*
X811951Y792599D01*
X811960Y792618D01*
X811997Y792664D01*
X812044Y792738D01*
X812099Y792858D01*
X812154Y792997D01*
X812201Y793182D01*
X812238Y793394D01*
X812247Y793644D01*
Y795659D01*
D02*
G37*
%LPD*%
D10*
X733220Y528360D02*
X755220D01*
Y607460D01*
X733220D02*
X755220D01*
X733220Y528360D02*
Y607460D01*
X743380Y1079680D02*
X765380D01*
X743380Y1000580D02*
Y1079680D01*
Y1000580D02*
X765380D01*
Y1079680D01*
X775720Y602450D02*
X814720D01*
X775720D02*
Y629450D01*
X814720D01*
Y602450D02*
Y629450D01*
X775720Y537680D02*
X814720D01*
X775720D02*
Y564680D01*
X814720D01*
Y537680D02*
Y564680D01*
X807560Y1110980D02*
X863760D01*
X807560D02*
Y1172480D01*
X863760D01*
Y1110980D02*
Y1172480D01*
X890700Y888820D02*
Y967920D01*
X912700D01*
Y888820D02*
Y967920D01*
X890700Y888820D02*
X912700D01*
X844980Y825680D02*
X866980D01*
X844980Y746580D02*
Y825680D01*
Y746580D02*
X866980D01*
Y825680D01*
X795450Y836060D02*
X817450D01*
X795450Y756960D02*
Y836060D01*
Y756960D02*
X817450D01*
Y836060D01*
M02*
