G04*
G04 #@! TF.GenerationSoftware,Altium Limited,Altium Designer,22.4.2 (48)*
G04*
G04 Layer_Physical_Order=2*
G04 Layer_Color=16711680*
%FSLAX44Y44*%
%MOMM*%
G71*
G04*
G04 #@! TF.SameCoordinates,FA8E5277-3887-454B-883E-EC14CB0092E5*
G04*
G04*
G04 #@! TF.FilePolarity,Positive*
G04*
G01*
G75*
%ADD14C,1.1500*%
%ADD22R,1.1500X1.1500*%
%ADD23R,1.2000X1.2000*%
%ADD24C,1.2000*%
%ADD25R,1.5500X1.5500*%
%ADD27C,1.5500*%
%ADD31C,1.0000*%
%ADD32C,1.5000*%
%ADD33C,1.3500*%
%ADD34R,1.3500X1.3500*%
%ADD35R,1.2000X1.2000*%
%ADD36R,1.7000X1.7000*%
%ADD37C,1.0000*%
%ADD38R,1.5000X1.5000*%
%ADD39C,1.7000*%
%ADD40C,1.5000*%
D14*
X744220Y600710D02*
D03*
X754380Y1007330D02*
D03*
X901700Y961170D02*
D03*
X855980Y753330D02*
D03*
X806450Y763710D02*
D03*
D22*
X754380Y1072930D02*
D03*
X901700Y895570D02*
D03*
X855980Y818930D02*
D03*
X806450Y829310D02*
D03*
D23*
X807720Y615950D02*
D03*
Y551180D02*
D03*
D24*
X859790Y604520D02*
D03*
X782720Y615950D02*
D03*
Y551180D02*
D03*
D25*
X831215Y683260D02*
D03*
X939800Y1151890D02*
D03*
X848360Y1138730D02*
D03*
D27*
X805815Y683260D02*
D03*
X829310Y488950D02*
D03*
X965200Y1151890D02*
D03*
X822960Y1138730D02*
D03*
D31*
X759460Y615950D02*
X782720D01*
X744220Y600710D02*
X759460Y615950D01*
X762286Y515335D02*
Y517044D01*
X744220Y535110D02*
X762286Y517044D01*
X802953Y489907D02*
X803910Y488950D01*
X790473Y489907D02*
X802953D01*
X765045Y515335D02*
X790473Y489907D01*
X762286Y515335D02*
X765045D01*
X782720Y615950D02*
Y639210D01*
X849658Y490002D02*
X850928Y491272D01*
X830362Y490002D02*
X849658D01*
X829310Y488950D02*
X830362Y490002D01*
X909237Y504190D02*
X910590D01*
X895267Y490220D02*
X909237Y504190D01*
X851980Y490220D02*
X895267D01*
X850928Y491272D02*
X851980Y490220D01*
X878027Y573957D02*
Y577767D01*
X859790Y555720D02*
X878027Y573957D01*
Y577767D02*
X888090Y587830D01*
X909633Y604833D02*
X910590Y605790D01*
X903214Y604833D02*
X909633D01*
X888090Y589710D02*
X903214Y604833D01*
X888090Y587830D02*
Y589710D01*
X834520Y555720D02*
X859790D01*
X829980Y551180D02*
X834520Y555720D01*
X807720Y551180D02*
X829980D01*
X869826Y615097D02*
Y617825D01*
X859790Y605061D02*
X869826Y615097D01*
X859790Y604520D02*
Y605061D01*
X909633Y630233D02*
X910590Y631190D01*
X891853Y630233D02*
X909633D01*
X879445Y617825D02*
X891853Y630233D01*
X869826Y617825D02*
X879445D01*
X849359Y611682D02*
X852086D01*
X859249Y604520D01*
X859790D01*
X849359Y611682D02*
Y615950D01*
X807720D02*
X849359D01*
X831215Y683260D02*
X835977Y678497D01*
X857885Y656590D01*
X1006790Y493710D02*
Y516914D01*
X1028297Y535620D02*
X1032427Y539750D01*
X1006790Y516914D02*
X1025496Y535620D01*
X910590Y656590D02*
X934720D01*
X969010Y474980D02*
X988060D01*
X1032427Y539750D02*
X1033780D01*
X934720Y656590D02*
X955040Y636270D01*
Y488950D02*
Y636270D01*
Y488950D02*
X969010Y474980D01*
X1025496Y535620D02*
X1028297D01*
X988060Y474980D02*
X1006790Y493710D01*
X1024877Y559750D02*
X1025757D01*
X986790Y529590D02*
X987747Y530547D01*
X995674D02*
X1024877Y559750D01*
X987747Y530547D02*
X995674D01*
X1025757Y559750D02*
X1032427Y566420D01*
X1033780D01*
X986790Y554990D02*
X988143D01*
X1032427Y591820D02*
X1033780D01*
X988143Y554990D02*
X993543Y560390D01*
X999466D01*
X1027027Y586420D02*
X1032427Y591820D01*
X1025496Y586420D02*
X1027027D01*
X999466Y560390D02*
X1025496Y586420D01*
X1065530Y533400D02*
Y612140D01*
X1048707Y516577D02*
X1065530Y533400D01*
X1034737Y516577D02*
X1048707D01*
X986790Y631190D02*
X1046480D01*
X1033780Y515620D02*
X1034737Y516577D01*
X1046480Y631190D02*
X1065530Y612140D01*
X986790Y529590D02*
X988143D01*
X986790Y631190D02*
X988143D01*
X1022842Y1043940D02*
X1028700Y1049798D01*
Y1086342D01*
Y1132840D01*
X1012190Y681990D02*
X1026410Y696210D01*
X988143Y681990D02*
X1012190D01*
X1026410Y696210D02*
Y881380D01*
X1009650Y1151890D02*
X1028700Y1132840D01*
X965200Y1151890D02*
X1009650D01*
X797290Y983650D02*
X797960Y982980D01*
X778060Y983650D02*
X797290D01*
X754380Y1007330D02*
X778060Y983650D01*
X807720Y1170940D02*
X920750D01*
X754380Y1117600D02*
X807720Y1170940D01*
X920750D02*
X939800Y1151890D01*
X754380Y1072930D02*
Y1117600D01*
X821348Y1132038D02*
X821908Y1132598D01*
Y1137678D01*
X822960Y1138730D01*
X815808Y1132038D02*
X821348D01*
X796690Y1112920D02*
X815808Y1132038D01*
X796690Y1071880D02*
Y1112920D01*
X992827Y632147D02*
X1050290Y689610D01*
X986790Y631190D02*
X987747Y632147D01*
X1050290Y689610D02*
Y836930D01*
X987747Y632147D02*
X992827D01*
X986790Y681990D02*
X988143D01*
X1026410Y881380D02*
X1042070D01*
X1017270D02*
X1026410D01*
X1050290Y836930D02*
X1069340Y855980D01*
X961390Y681990D02*
X988143D01*
X988392Y872158D02*
X1007110Y853440D01*
Y826426D02*
Y853440D01*
X995074Y814390D02*
X1007110Y826426D01*
X798512Y655002D02*
X812298D01*
X782720Y639210D02*
X798512Y655002D01*
X977648Y938307D02*
X985932D01*
X1005205Y957580D01*
X971790Y944165D02*
X977648Y938307D01*
X971790Y944165D02*
Y1021777D01*
X993953Y1043940D01*
X949960Y863600D02*
Y906002D01*
X955818Y911860D02*
X990600D01*
X1009963Y931223D01*
X949960Y906002D02*
X955818Y911860D01*
X988392Y872158D02*
Y880442D01*
X997270Y889320D01*
X1013417Y904280D02*
X1015917Y906780D01*
X986790Y808990D02*
X988143D01*
X1011886Y904280D02*
X1013417D01*
X993543Y814390D02*
X995074D01*
X997270Y889664D02*
X1011886Y904280D01*
X988143Y808990D02*
X993543Y814390D01*
X997270Y889320D02*
Y889664D01*
X1015917Y906780D02*
X1017270D01*
X1009963Y931223D02*
X1016313D01*
X979170Y834390D02*
X986790D01*
X1016313Y931223D02*
X1017270Y932180D01*
X949960Y863600D02*
X979170Y834390D01*
X985897Y1069340D02*
X1004570D01*
X928370Y971469D02*
X946150Y989249D01*
X972820Y707390D02*
X986790D01*
X928370Y857250D02*
Y971469D01*
X946150Y1029593D02*
X985897Y1069340D01*
X949960Y730250D02*
Y835660D01*
Y730250D02*
X972820Y707390D01*
X928370Y857250D02*
X949960Y835660D01*
X946150Y989249D02*
Y1029593D01*
X901700Y843280D02*
X910590Y834390D01*
X901700Y843280D02*
Y895570D01*
X909237Y783590D02*
X910590D01*
X879060Y818930D02*
X890590Y807400D01*
X861060Y824010D02*
Y897890D01*
X855980Y818930D02*
X879060D01*
X855980D02*
X861060Y824010D01*
X890590Y800706D02*
Y807400D01*
Y800706D02*
X902306Y788990D01*
X903837D01*
X909237Y783590D01*
X903837Y763590D02*
X909237Y758190D01*
X872797Y793750D02*
X893598Y772949D01*
X909237Y758190D02*
X910590D01*
X893598Y772297D02*
X902306Y763590D01*
X893598Y772297D02*
Y772949D01*
X806450Y829310D02*
X842010Y793750D01*
X872797D01*
X902306Y763590D02*
X903837D01*
X993953Y1043940D02*
X1004570D01*
X899600Y682820D02*
X909760D01*
X835660Y897890D02*
X837840Y900070D01*
X1022842Y1092200D02*
X1028700Y1086342D01*
X902970Y1017270D02*
X904309Y1018609D01*
X901700Y1003805D02*
X903353Y1005457D01*
X894342Y953406D02*
X901700Y960764D01*
Y961170D02*
Y1003805D01*
Y960764D02*
Y961170D01*
X904309Y1018609D02*
X910304D01*
X903353Y1005457D02*
Y1016887D01*
X838780Y771580D02*
X864180D01*
X781050Y892032D02*
X786908Y897890D01*
X781050Y802148D02*
X786908Y796290D01*
X1005205Y957580D02*
X1017270D01*
X1028700Y1086342D02*
X1069340Y1045702D01*
X849167Y981773D02*
X867473D01*
X878840Y703580D02*
Y756920D01*
X856018Y938568D02*
X887886D01*
X1069340Y855980D02*
Y1045702D01*
X902970Y1017270D02*
X903353Y1016887D01*
X909760Y682820D02*
X910590Y681990D01*
X864180Y771580D02*
X878840Y756920D01*
X837840Y920390D02*
X856018Y938568D01*
X786908Y897890D02*
X835660D01*
X1004570Y1043940D02*
X1022842D01*
X983895Y1092200D02*
X1022842D01*
X847960Y982980D02*
X849167Y981773D01*
X878840Y703580D02*
X899600Y682820D01*
X887886Y938568D02*
X894342Y945024D01*
X837840Y900070D02*
Y920390D01*
X786908Y796290D02*
X814070D01*
X781050Y802148D02*
Y892032D01*
X910304Y1018609D02*
X983895Y1092200D01*
X867473Y981773D02*
X902970Y1017270D01*
X894342Y945024D02*
Y953406D01*
X814070Y796290D02*
X838780Y771580D01*
X805815Y683260D02*
Y762669D01*
X882161Y1026160D02*
X894271Y1038270D01*
X933450Y656590D02*
X934720Y655320D01*
X901076Y1042670D02*
X902970D01*
X797960Y1026160D02*
Y1069663D01*
X934720Y655320D02*
X961390Y681990D01*
X813860Y656380D02*
X834390Y676910D01*
X797960Y982980D02*
Y1026160D01*
X1042070Y881380D02*
Y1012682D01*
X813676Y656380D02*
X813860D01*
X1004570Y1018540D02*
X1036212D01*
X835660Y683260D02*
Y733010D01*
X812298Y655002D02*
X813676Y656380D01*
X782720Y551180D02*
Y615950D01*
X756920Y665010D02*
X782720Y639210D01*
X896676Y1038270D02*
X901076Y1042670D01*
X1036212Y1018540D02*
X1042070Y1012682D01*
X835660Y733010D02*
X855980Y753330D01*
X894271Y1038270D02*
X896676D01*
X796690Y1070933D02*
X797960Y1069663D01*
X756920Y665010D02*
Y941940D01*
X797960Y1026160D02*
X882161D01*
X910590Y656590D02*
X933450D01*
X857885D02*
X910590D01*
X756920Y941940D02*
X797960Y982980D01*
X796690Y1070933D02*
Y1071880D01*
D32*
X744220Y535110D02*
D03*
X803910Y488950D02*
D03*
X986790Y529590D02*
D03*
X1017270Y957580D02*
D03*
Y932180D02*
D03*
Y906780D02*
D03*
Y881380D02*
D03*
X861060Y897890D02*
D03*
X1004570Y1069340D02*
D03*
Y1043940D02*
D03*
Y1018540D02*
D03*
X986790Y504190D02*
D03*
Y554990D02*
D03*
Y580390D02*
D03*
Y605790D02*
D03*
Y631190D02*
D03*
Y656590D02*
D03*
Y681990D02*
D03*
Y707390D02*
D03*
Y732790D02*
D03*
Y758190D02*
D03*
Y783590D02*
D03*
Y808990D02*
D03*
Y834390D02*
D03*
X910590Y504190D02*
D03*
Y529590D02*
D03*
Y554990D02*
D03*
Y580390D02*
D03*
Y605790D02*
D03*
Y631190D02*
D03*
Y656590D02*
D03*
Y681990D02*
D03*
Y707390D02*
D03*
Y732790D02*
D03*
Y758190D02*
D03*
Y783590D02*
D03*
Y808990D02*
D03*
X1033780Y515620D02*
D03*
Y539750D02*
D03*
Y566420D02*
D03*
Y591820D02*
D03*
D33*
X796690Y1071880D02*
D03*
X797960Y982980D02*
D03*
D34*
X846690Y1071880D02*
D03*
X847960Y982980D02*
D03*
D35*
X859790Y555720D02*
D03*
D36*
X902970Y1068070D02*
D03*
D37*
X1060000Y1170000D02*
D03*
Y480000D02*
D03*
X750000D02*
D03*
Y1170000D02*
D03*
D38*
X835660Y897890D02*
D03*
X910590Y834390D02*
D03*
D39*
X902970Y1017270D02*
D03*
Y1042670D02*
D03*
D40*
Y1068070D02*
Y1127863D01*
X848610Y1138480D02*
X853503D01*
X855333Y1136650D02*
X894183D01*
X902970Y1127863D01*
X848360Y1138730D02*
X848610Y1138480D01*
X853503D02*
X855333Y1136650D01*
X846690Y1071880D02*
X848466D01*
X852276Y1068070D02*
X902970D01*
X848466Y1071880D02*
X852276Y1068070D01*
M02*
