G04*
G04 #@! TF.GenerationSoftware,Altium Limited,Altium Designer,22.4.2 (48)*
G04*
G04 Layer_Color=2752767*
%FSLAX44Y44*%
%MOMM*%
G71*
G04*
G04 #@! TF.SameCoordinates,FA8E5277-3887-454B-883E-EC14CB0092E5*
G04*
G04*
G04 #@! TF.FilePolarity,Positive*
G04*
G01*
G75*
%ADD44C,0.1270*%
%ADD45C,0.1693*%
D44*
X739140Y595630D02*
Y605790D01*
X749300D01*
Y595630D01*
X739140D01*
Y530030D02*
Y540190D01*
X749300D01*
Y530030D01*
X739140D01*
X805815Y678180D02*
X800735Y688340D01*
X810895D01*
X805815Y678180D01*
X831215D02*
X826135Y688340D01*
X836295D01*
X831215Y678180D01*
X798830Y483870D02*
Y494030D01*
X808990D01*
Y483870D01*
X798830D01*
X824230D02*
Y494030D01*
X834390D01*
Y483870D01*
X824230D01*
X965200Y1146810D02*
X960120Y1156970D01*
X970280D01*
X965200Y1146810D01*
X939800D02*
X934720Y1156970D01*
X944880D01*
X939800Y1146810D01*
X848360Y1133650D02*
X850900Y1136190D01*
X853440D01*
X850900Y1138730D01*
X853440Y1141270D01*
X850900D01*
X848360Y1143810D01*
X845820Y1141270D01*
X843280D01*
X845820Y1138730D01*
X843280Y1136190D01*
X845820D01*
X848360Y1133650D01*
X897890Y1062990D02*
X900430Y1068070D01*
X897890Y1073150D01*
X902970Y1070610D01*
X908050Y1073150D01*
X905510Y1068070D01*
X908050Y1062990D01*
X902970Y1065530D01*
X897890Y1062990D01*
X981710Y524510D02*
Y534670D01*
X991870D01*
Y524510D01*
X981710D01*
X822960Y1133650D02*
X825500Y1136190D01*
X828040D01*
X825500Y1138730D01*
X828040Y1141270D01*
X825500D01*
X822960Y1143810D01*
X820420Y1141270D01*
X817880D01*
X820420Y1138730D01*
X817880Y1136190D01*
X820420D01*
X822960Y1133650D01*
X1057460Y1167460D02*
Y1164920D01*
X1062540D01*
Y1167460D01*
X1065080D01*
Y1172540D01*
X1062540D01*
Y1175080D01*
X1057460D01*
Y1172540D01*
X1054920D01*
Y1167460D01*
X1057460D01*
Y477460D02*
Y474920D01*
X1062540D01*
Y477460D01*
X1065080D01*
Y482540D01*
X1062540D01*
Y485080D01*
X1057460D01*
Y482540D01*
X1054920D01*
Y477460D01*
X1057460D01*
X747460D02*
Y474920D01*
X752540D01*
Y477460D01*
X755080D01*
Y482540D01*
X752540D01*
Y485080D01*
X747460D01*
Y482540D01*
X744920D01*
Y477460D01*
X747460D01*
Y1167460D02*
Y1164920D01*
X752540D01*
Y1167460D01*
X755080D01*
Y1172540D01*
X752540D01*
Y1175080D01*
X747460D01*
Y1172540D01*
X744920D01*
Y1167460D01*
X747460D01*
X1012190Y952500D02*
Y962660D01*
X1022350D01*
Y952500D01*
X1012190D01*
Y927100D02*
Y937260D01*
X1022350D01*
Y927100D01*
X1012190D01*
Y901700D02*
Y911860D01*
X1022350D01*
Y901700D01*
X1012190D01*
Y876300D02*
Y886460D01*
X1022350D01*
Y876300D01*
X1012190D01*
X830580Y892810D02*
Y902970D01*
X840740D01*
Y892810D01*
X830580D01*
X855980D02*
Y902970D01*
X866140D01*
Y892810D01*
X855980D01*
X897890Y1012190D02*
X900430Y1017270D01*
X897890Y1022350D01*
X902970Y1019810D01*
X908050Y1022350D01*
X905510Y1017270D01*
X908050Y1012190D01*
X902970Y1014730D01*
X897890Y1012190D01*
Y1037590D02*
X900430Y1042670D01*
X897890Y1047750D01*
X902970Y1045210D01*
X908050Y1047750D01*
X905510Y1042670D01*
X908050Y1037590D01*
X902970Y1040130D01*
X897890Y1037590D01*
X999490Y1064260D02*
Y1074420D01*
X1009650D01*
Y1064260D01*
X999490D01*
Y1038860D02*
Y1049020D01*
X1009650D01*
Y1038860D01*
X999490D01*
Y1013460D02*
Y1023620D01*
X1009650D01*
Y1013460D01*
X999490D01*
X981710Y499110D02*
Y509270D01*
X991870D01*
Y499110D01*
X981710D01*
Y549910D02*
Y560070D01*
X991870D01*
Y549910D01*
X981710D01*
Y575310D02*
Y585470D01*
X991870D01*
Y575310D01*
X981710D01*
Y600710D02*
Y610870D01*
X991870D01*
Y600710D01*
X981710D01*
Y626110D02*
Y636270D01*
X991870D01*
Y626110D01*
X981710D01*
Y651510D02*
Y661670D01*
X991870D01*
Y651510D01*
X981710D01*
Y676910D02*
Y687070D01*
X991870D01*
Y676910D01*
X981710D01*
Y702310D02*
Y712470D01*
X991870D01*
Y702310D01*
X981710D01*
Y727710D02*
Y737870D01*
X991870D01*
Y727710D01*
X981710D01*
Y753110D02*
Y763270D01*
X991870D01*
Y753110D01*
X981710D01*
Y778510D02*
Y788670D01*
X991870D01*
Y778510D01*
X981710D01*
Y803910D02*
Y814070D01*
X991870D01*
Y803910D01*
X981710D01*
Y829310D02*
Y839470D01*
X991870D01*
Y829310D01*
X981710D01*
X905510Y499110D02*
Y509270D01*
X915670D01*
Y499110D01*
X905510D01*
Y524510D02*
Y534670D01*
X915670D01*
Y524510D01*
X905510D01*
Y549910D02*
Y560070D01*
X915670D01*
Y549910D01*
X905510D01*
Y575310D02*
Y585470D01*
X915670D01*
Y575310D01*
X905510D01*
Y600710D02*
Y610870D01*
X915670D01*
Y600710D01*
X905510D01*
Y626110D02*
Y636270D01*
X915670D01*
Y626110D01*
X905510D01*
Y651510D02*
Y661670D01*
X915670D01*
Y651510D01*
X905510D01*
Y676910D02*
Y687070D01*
X915670D01*
Y676910D01*
X905510D01*
Y702310D02*
Y712470D01*
X915670D01*
Y702310D01*
X905510D01*
Y727710D02*
Y737870D01*
X915670D01*
Y727710D01*
X905510D01*
Y753110D02*
Y763270D01*
X915670D01*
Y753110D01*
X905510D01*
Y778510D02*
Y788670D01*
X915670D01*
Y778510D01*
X905510D01*
Y803910D02*
Y814070D01*
X915670D01*
Y803910D01*
X905510D01*
Y829310D02*
Y839470D01*
X915670D01*
Y829310D01*
X905510D01*
X1028700Y510540D02*
Y520700D01*
X1038860D01*
Y510540D01*
X1028700D01*
Y534670D02*
Y544830D01*
X1038860D01*
Y534670D01*
X1028700D01*
Y561340D02*
Y571500D01*
X1038860D01*
Y561340D01*
X1028700D01*
Y586740D02*
Y596900D01*
X1038860D01*
Y586740D01*
X1028700D01*
D45*
X801770Y1071880D02*
G03*
X801770Y1071880I-5080J0D01*
G01*
X851770Y1071880D02*
G03*
X851770Y1071880I-5080J0D01*
G01*
X864870Y555720D02*
G03*
X864870Y555720I-5080J0D01*
G01*
Y604520D02*
G03*
X864870Y604520I-5080J0D01*
G01*
X759460Y1007330D02*
G03*
X759460Y1007330I-5080J0D01*
G01*
Y1072930D02*
G03*
X759460Y1072930I-5080J0D01*
G01*
X812800Y615950D02*
G03*
X812800Y615950I-5080J0D01*
G01*
X787800D02*
G03*
X787800Y615950I-5080J0D01*
G01*
X812800Y551180D02*
G03*
X812800Y551180I-5080J0D01*
G01*
X787800D02*
G03*
X787800Y551180I-5080J0D01*
G01*
X853040Y982980D02*
G03*
X853040Y982980I-5080J0D01*
G01*
X803040Y982980D02*
G03*
X803040Y982980I-5080J0D01*
G01*
X906780Y895570D02*
G03*
X906780Y895570I-5080J0D01*
G01*
Y961170D02*
G03*
X906780Y961170I-5080J0D01*
G01*
X861060Y753330D02*
G03*
X861060Y753330I-5080J0D01*
G01*
Y818930D02*
G03*
X861060Y818930I-5080J0D01*
G01*
X811530Y763710D02*
G03*
X811530Y763710I-5080J0D01*
G01*
Y829310D02*
G03*
X811530Y829310I-5080J0D01*
G01*
M02*
