G04*
G04 #@! TF.GenerationSoftware,Altium Limited,Altium Designer,22.4.2 (48)*
G04*
G04 Layer_Color=16711935*
%FSLAX44Y44*%
%MOMM*%
G71*
G04*
G04 #@! TF.SameCoordinates,FA8E5277-3887-454B-883E-EC14CB0092E5*
G04*
G04*
G04 #@! TF.FilePolarity,Positive*
G04*
G01*
G75*
%ADD10C,0.2000*%
%ADD42C,0.1000*%
D10*
X734220Y552890D02*
X754220D01*
Y585910D01*
X734220D02*
X754220D01*
X734220Y552890D02*
Y585910D01*
X744380Y1058130D02*
X764380D01*
X744380Y1022130D02*
Y1058130D01*
Y1022130D02*
X764380D01*
Y1058130D01*
X777220Y603450D02*
X813220D01*
X777220D02*
Y628450D01*
X813220D01*
Y603450D02*
Y628450D01*
X777220Y538680D02*
X813220D01*
X777220D02*
Y563680D01*
X813220D01*
Y538680D02*
Y563680D01*
X808560Y1111980D02*
X862760D01*
X808560D02*
Y1171480D01*
X862760D01*
Y1111980D02*
Y1171480D01*
X891700Y910370D02*
Y946370D01*
X911700D01*
Y910370D02*
Y946370D01*
X891700Y910370D02*
X911700D01*
X845980Y804130D02*
X865980D01*
X845980Y768130D02*
Y804130D01*
Y768130D02*
X865980D01*
Y804130D01*
X796450Y814510D02*
X816450D01*
X796450Y778510D02*
Y814510D01*
Y778510D02*
X816450D01*
Y814510D01*
D42*
X847740Y683260D02*
G03*
X847740Y683260I-29225J0D01*
G01*
X836539Y531621D02*
G03*
X844789Y523371I8250J0D01*
G01*
X874789Y523371D02*
G03*
X883039Y531621I0J8250D01*
G01*
Y628621D02*
G03*
X874789Y636871I-8250J0D01*
G01*
X844789Y636871D02*
G03*
X836539Y628621I0J-8250D01*
G01*
X841289Y534371D02*
G03*
X845789Y529871I4500J0D01*
G01*
X873789D02*
G03*
X878289Y534371I0J4500D01*
G01*
Y625871D02*
G03*
X873789Y630371I-4500J0D01*
G01*
X845789D02*
G03*
X841289Y625871I0J-4500D01*
G01*
X845835Y488950D02*
G03*
X845835Y488950I-29225J0D01*
G01*
X981725Y1151890D02*
G03*
X981725Y1151890I-29225J0D01*
G01*
X926690Y836790D02*
G03*
X926690Y836790I-5000J0D01*
G01*
X883039Y531621D02*
Y628621D01*
X836539Y531621D02*
Y628621D01*
X878289Y534370D02*
Y625870D01*
X841289Y534370D02*
Y625870D01*
X845789Y630371D02*
X873789D01*
X844789Y636871D02*
X874789D01*
X845789Y529871D02*
X873789D01*
X844789Y523371D02*
X874789D01*
X874789Y523371D01*
X885470Y990670D02*
Y1094670D01*
Y1094670D02*
X931470D01*
Y990670D02*
Y1094670D01*
X885470Y990670D02*
X931470D01*
X918470D02*
Y1094670D01*
X912690Y492790D02*
X984690D01*
X912690Y845790D02*
X984690D01*
Y492790D02*
Y845790D01*
X912690Y492790D02*
Y845790D01*
M02*
